<?xml version="1.0" encoding="UTF-8" standalone="no"?>
<!-- Created with Inkscape (http://www.inkscape.org/) -->

<svg
   xmlns:dc="http://purl.org/dc/elements/1.1/"
   xmlns:cc="http://creativecommons.org/ns#"
   xmlns:rdf="http://www.w3.org/1999/02/22-rdf-syntax-ns#"
   xmlns:svg="http://www.w3.org/2000/svg"
   xmlns="http://www.w3.org/2000/svg"
   xmlns:sodipodi="http://sodipodi.sourceforge.net/DTD/sodipodi-0.dtd"
   xmlns:inkscape="http://www.inkscape.org/namespaces/inkscape"
   version="1.1"
   id="svg50"
   width="195"
   height="213"
   viewBox="0 0 195 213"
   sodipodi:docname="shield_black.svg"
   inkscape:version="0.92.2 (5c3e80d, 2017-08-06)">
  <metadata
     id="metadata56">
    <rdf:RDF>
      <cc:Work
         rdf:about="">
        <dc:format>image/svg+xml</dc:format>
        <dc:type
           rdf:resource="http://purl.org/dc/dcmitype/StillImage" />
        <dc:title></dc:title>
      </cc:Work>
    </rdf:RDF>
  </metadata>
  <defs
     id="defs54" />
  <sodipodi:namedview
     pagecolor="#ffffff"
     bordercolor="#666666"
     borderopacity="1"
     objecttolerance="10"
     gridtolerance="10"
     guidetolerance="10"
     inkscape:pageopacity="0"
     inkscape:pageshadow="2"
     inkscape:window-width="1366"
     inkscape:window-height="705"
     id="namedview52"
     showgrid="false"
     inkscape:zoom="2"
     inkscape:cx="203.20291"
     inkscape:cy="115.55656"
     inkscape:window-x="-8"
     inkscape:window-y="-8"
     inkscape:window-maximized="1"
     inkscape:current-layer="svg50" />
  <path
     style="fill:#000000"
     d="M 60.375 4 C 57.832302 4 55 6.9787472 55 9.6542969 C 55 11.058677 54.406441 12 53.519531 12 C 51.943304 12 50.456669 16.142252 51.271484 18.265625 C 51.627702 19.193913 50.213992 19.573592 46.023438 19.669922 C 39.589134 19.817837 35.661445 21.492852 31.130859 26.023438 C 26.685375 30.468921 25.497851 35.761907 27.445312 42.460938 C 28.300084 45.401251 29 48.710961 29 49.814453 C 29 52.525883 24.002141 60 22.189453 60 C 19.350911 60 13.749767 64.354187 12.384766 67.621094 C 11.622869 69.444572 11 73.58804 11 76.830078 C 11 81.883884 10.568015 83.268378 7.9765625 86.529297 C 4.1328535 91.365976 3.1700404 94.919662 5.2832031 96.464844 C 6.4646893 97.328768 6.720699 98.668109 6.3007812 101.79883 C 5.9452209 104.44973 6.1978628 106.53313 6.9921875 107.49023 C 8.7687891 109.63091 12.758019 109.36089 14.232422 107 C 14.919383 105.9 16.408317 105 17.541016 105 C 20.501423 105 22 103.08472 22 99.300781 C 22 97.485781 22.38213 96 22.849609 96 C 23.317087 96 25.533489 97.329099 27.775391 98.953125 C 31.392504 101.57335 31.769143 102.22093 31.113281 104.70312 C 30.614185 106.59202 29.148837 108.08379 26.599609 109.29883 C 24.462377 110.31751 23.044602 111.61909 23.332031 112.29883 C 46.715808 167.59936 51.600156 176.84868 62.900391 187.20898 C 73.568654 196.98986 87.766994 204.47576 101.25586 207.43164 C 104.69042 208.18428 112.51808 208.84519 118.65039 208.90039 L 129.79883 209 L 134.92969 203.38672 C 141.7016 195.97718 145.3785 190.52499 149.52539 181.74414 C 155.15018 169.8339 156.4717 163.31287 156.4707 147.5 C 156.46929 131.6846 155.44746 127.26639 147.45703 108.56055 C 145.00585 102.82228 143 97.874387 143 97.564453 C 143 97.254519 143.97769 97 145.17188 97 C 146.36607 97 148.16607 96.255947 149.17188 95.345703 C 150.17768 94.43546 151 94.174534 151 94.767578 C 151 95.360622 152.17909 97.24758 153.61914 98.958984 C 156.15264 101.96988 156.21427 102.35886 155.55664 110.98633 C 154.85148 120.23724 155.52924 123.22219 158.59961 124.40039 C 159.5096 124.74959 160.82573 124.55919 161.52539 123.97852 C 162.45415 123.20772 163.80801 123.6076 166.53906 125.46094 C 168.59644 126.85711 170.63145 128 171.0625 128 C 172.77971 128 178 122.70776 178 120.9668 C 178 119.94636 176.92899 117.86654 175.61914 116.34375 C 173.64455 114.04816 173.41883 113.17554 174.29883 111.24414 C 175.75373 108.05097 172.80921 105.20479 167.0332 104.21875 C 164.62612 103.80783 162.47086 102.91454 162.24414 102.23438 C 162.01742 101.55421 164.31145 98.418965 167.33984 95.267578 L 172.8457 89.539062 L 172.67188 93.011719 C 172.5359 95.748475 172.97951 96.695281 174.75977 97.482422 C 176.00229 98.031799 177.27801 99.30179 177.5957 100.30273 C 177.91338 101.30368 179.24016 102.60864 180.54492 103.20312 C 183.62546 104.60671 187.68594 102.11913 188.64648 98.238281 C 189.01911 96.732739 190.15101 94.912046 191.16211 94.193359 C 193.69692 92.391625 193.4863 91.054515 189.89844 86.175781 C 186.86668 82.053232 186.81204 81.782141 187.48242 74.208984 C 188.44238 63.364379 186.90476 59.940126 177.47461 51.912109 C 169.5342 45.152334 168.45307 43.326397 167.63672 35.304688 C 167.02386 29.282642 165.08479 25.086006 161.28906 21.566406 C 158.80964 19.267358 157.41674 18.707135 151.3418 17.558594 C 150.15489 17.334193 146.32989 17.75536 142.8418 18.494141 C 137.42072 19.642333 136.33965 19.630382 135.39062 18.417969 C 133.56896 16.090743 129.3181 16.78142 125.65234 20 C 122.39268 22.862018 119.28744 24.314124 121.80078 21.800781 C 123.34328 20.25828 123.34328 16.74172 121.80078 15.199219 C 120.45191 13.850347 79.400964 13.457304 77.332031 14.773438 C 76.689275 15.182322 76.012088 17.087619 75.828125 19.007812 C 75.514307 22.283416 75.398287 22.130879 73.953125 16.509766 C 72.6412 11.406894 71.982699 10.368995 69.509766 9.5097656 C 67.912881 8.9549222 65.589382 7.4875 64.347656 6.25 C 63.105931 5.0125 61.319193 4 60.375 4 z M 59.789062 5 C 62.149162 5 65.995819 8.5759743 66.015625 10.789062 C 66.028765 12.25739 66.165751 12.287219 66.986328 11 C 68.575802 8.506631 71.161689 11.058021 72.607422 16.546875 C 73.324997 19.271215 73.930808 21.982464 73.955078 22.572266 C 74.007448 23.844788 66.408829 29 64.480469 29 C 63.444193 29 63.351199 29.736737 64.070312 32.244141 C 64.581919 34.02801 64.998694 35.71551 64.996094 35.994141 C 64.986924 36.965495 49.486548 36.872442 47.75 35.890625 C 45.380371 34.550874 45.542959 31.433119 48.074219 29.660156 C 50.686928 27.830143 49.865554 27.34346 42.044922 26.083984 C 34.779405 24.913906 33.944826 24.465278 37.173828 23.457031 C 38.452777 23.057683 39.775542 22.302954 40.111328 21.78125 C 41.054329 20.316129 49.006487 20.694582 53.875 22.435547 C 59.255693 24.359667 62.694412 24.441105 58.326172 22.541016 C 51.663554 19.642922 49.900591 12.129337 56.177734 13.384766 C 59.27674 14.004567 59.296871 13.985111 57.503906 12.003906 C 55.998972 10.340974 55.8801 9.5596349 56.820312 7.4960938 C 57.445787 6.1233281 58.78098 5 59.789062 5 z M 116.35938 14.867188 L 113.80859 18.183594 C 111.73185 20.885235 110.46182 21.558762 106.95117 21.816406 L 102.64062 22.132812 L 105.19141 18.816406 C 107.26815 16.114765 108.53818 15.441238 112.04883 15.183594 L 116.35938 14.867188 z M 87.5 14.876953 L 84.054688 18.4375 C 82.159295 20.396551 80.359296 21.992775 80.054688 21.984375 C 78.271021 21.935059 76.870155 19.951558 77.162109 17.886719 C 77.459246 15.785216 78.097859 15.462115 82.5 15.1875 L 87.5 14.876953 z M 92.892578 15 L 97.392578 15 L 94 18.5 C 91.112723 21.478914 89.937454 22 86.107422 22 L 81.607422 22 L 85 18.5 C 87.887277 15.521086 89.062546 15 92.892578 15 z M 102.74609 15 L 107.10156 15 L 104.43164 18.5 C 101.99856 21.689942 101.31322 22 96.685547 22 L 91.607422 22 L 95 18.5 C 97.854261 15.55515 99.08209 15 102.74609 15 z M 118.86523 15.183594 C 119.04725 15.170133 119.22774 15.175673 119.40625 15.201172 C 121.86334 15.552145 122.89491 19.81724 120.83789 21.121094 C 120.10227 21.587372 117.78971 21.975975 115.69922 21.984375 L 111.89844 22 L 114.60547 18.451172 C 116.22099 16.333117 117.59109 15.27782 118.86523 15.183594 z M 132.06836 18.777344 C 133.22637 18.70212 133.44189 19.30443 133.28906 21.416016 C 133.17294 23.020341 132.51131 24.685012 131.81836 25.113281 C 131.12537 25.54155 130.85552 26.187542 131.21875 26.550781 C 131.58199 26.914019 132.93935 26.151302 134.23633 24.855469 C 136.89724 22.196909 141.25251 19.992745 143.79688 20.015625 C 145.23548 20.028561 145.27199 20.175034 144.0293 20.960938 C 141.15258 22.780234 144.08618 23.329854 147.63672 21.636719 C 152.23717 19.442918 153.30324 20.276077 148.84375 22.580078 C 147.00514 23.529999 143.475 26.009341 141 28.089844 C 136.15483 32.162731 131.3894 34.438961 130.55078 33.082031 C 130.26488 32.619436 129.01169 31.990173 127.76562 31.683594 L 125.5 31.126953 L 127.78516 32.8125 C 129.04202 33.740191 131.02881 35.216917 132.20117 36.09375 C 135.35939 38.455854 133.93688 41 129.45703 41 C 126.19864 41 125.69013 40.615335 124.17578 37.009766 C 122.48517 32.98452 121 31.783875 121 34.441406 C 121 35.233947 121.45 36.160081 122 36.5 C 123.30262 37.305063 123.28265 41.604049 121.96484 44.066406 C 120.73142 46.371074 116.7536 46.612597 114.99219 44.490234 C 114.03686 43.339133 113.98596 41.735481 114.77734 37.740234 C 115.38515 34.67176 115.45104 31.878346 114.9375 31 C 114.24814 29.820958 114.05515 29.981437 114.03125 31.75 C 113.9857 35.120022 113.91711 35.395488 112.79297 36.75 C 111.27767 38.575827 108.02804 38.276712 107.36133 36.25 C 106.39966 33.326605 104.05007 28.628233 102.375 26.277344 C 100.81892 24.093454 100.85629 24.056364 104.39648 24.189453 C 106.37888 24.263979 108 24.701225 108 25.162109 C 108 25.622992 108.47613 26 109.05859 26 C 109.64105 26 109.83992 25.55 109.5 25 C 108.49444 23.372962 109.97842 23.84802 113.31055 26.220703 C 118.0827 29.618773 122.55823 29.732168 118.25 26.345703 C 116.67006 25.103801 116.75836 25.027017 119.1543 25.568359 C 121.25489 26.042968 122.61199 25.442734 125.66602 22.683594 C 127.78815 20.766383 130.41845 19.039295 131.51172 18.847656 C 131.71728 18.811623 131.90293 18.78809 132.06836 18.777344 z M 158.33398 21.271484 C 158.52367 21.322807 159.01797 21.843867 159.91602 22.861328 C 161.06205 24.159759 162.03161 26.409759 162.07031 27.861328 C 162.13273 30.205556 162.23167 30.276458 162.94922 28.5 C 163.71832 26.595906 163.80734 26.619883 164.81836 29 C 165.40243 30.375 166.34577 34.425 166.91602 38 C 167.8204 43.669708 168.46505 44.981555 171.96289 48.273438 C 176.81698 52.841718 178.11675 56.711034 175.45117 58.660156 C 174.02038 59.706375 173.87635 60.274787 174.80469 61.203125 C 176.5775 62.975938 176.25879 65.45619 173.99609 67.503906 C 172.34018 69.002482 171.55842 69.119349 169.49609 68.179688 C 167.93793 67.469741 167 66.218419 167 64.847656 L 167 62.652344 L 164.65625 64.853516 C 161.90552 67.437689 158.99926 66.815629 159 63.642578 C 159.00028 62.463922 159.90028 59.133634 161 56.240234 C 162.09973 53.346835 162.96527 50.196835 162.92188 49.240234 C 162.87846 48.283634 162.14077 49.486102 161.2832 51.914062 C 160.42564 54.342022 157.87285 58.173255 155.61133 60.427734 C 150.92073 65.103744 144.98246 69.534435 145.03516 68.318359 C 145.05464 67.868407 145.71398 66.375 146.5 65 C 148.37209 61.725113 148.37209 60.446299 146.5 62 C 145.675 62.684689 145 62.907036 145 62.494141 C 145 61.705834 149.8458 53.270913 152.75195 49 C 153.8932 47.322793 152.97961 47.826953 149.97656 50.53125 C 144.21001 55.72412 139.59241 57.736136 137.47461 55.978516 C 136.10888 54.84506 136.10807 54.537355 137.47461 53.027344 C 139.63487 50.640285 139.40242 50.28774 136 50.787109 C 133.36077 51.174466 133 50.930437 133 48.767578 C 133 45.68969 135.66049 43.218683 139.87891 42.375 C 142.17082 41.916616 142.8125 41.412109 142.0625 40.662109 C 138.96969 37.569304 143.23403 35.025348 148.11914 37.048828 C 150.32561 37.962779 151.7088 37.997936 153.49609 37.183594 C 157.77258 35.235095 160.4546 27.491776 158.58203 22.5 C 158.25868 21.638032 158.1443 21.220161 158.33398 21.271484 z M 154.60938 22.359375 C 155.3606 22.332789 155.94975 22.544799 156.45117 22.960938 C 158.41439 24.590248 158.43104 28.266412 156.49023 32.019531 C 154.45407 35.957018 151.82783 37.265239 148.5 36 C 144.46477 34.465811 141.17472 34.805519 140.07031 36.869141 C 139.52031 37.896825 139.32215 38.988161 139.62891 39.294922 C 139.93567 39.601682 138.81638 40.560226 137.14258 41.425781 C 133.35596 43.383919 132.40372 43.422008 133.95508 41.552734 C 134.6156 40.756854 135.01024 38.992745 134.83203 37.632812 C 134.56317 35.581176 135.69941 34.277476 141.50391 29.96875 C 148.6474 24.66608 152.35569 22.439133 154.60938 22.359375 z M 82.564453 22.746094 C 87.623955 22.803557 94.607941 23.14728 95.8125 23.548828 C 96.53486 23.789632 96.798523 24.514758 96.398438 25.162109 C 95.908664 25.954579 96.210189 26.133026 97.320312 25.707031 C 98.413255 25.287629 99.3649 25.81447 100.14258 27.267578 C 100.78784 28.473247 101.92006 30.062646 102.6582 30.800781 C 103.89876 32.041349 104.13389 32.877773 104.40234 37 C 104.45607 37.825 105.51266 38.64456 106.75 38.820312 C 109.61609 39.227338 109.61817 40.254638 106.75586 41.513672 C 103.99051 42.730056 103.31615 45.522626 105.57812 46.390625 C 107.85619 47.264799 110.18126 45.147379 109.45508 42.859375 C 108.60452 40.179494 110.29964 40.582552 111.58984 43.367188 C 112.48917 45.308208 112.35818 45.918971 110.83984 46.867188 C 108.56376 48.288626 108.45653 50.577287 110.62695 51.410156 C 113.00232 52.321672 115.17506 50.125619 114.37891 47.617188 C 113.79063 45.763662 113.90319 45.67587 115.3457 46.873047 C 116.26706 47.637715 118.30041 48.036843 120.00195 47.787109 C 122.70086 47.390993 123.27722 47.803222 125.43945 51.671875 C 127.72443 55.760151 127.7537 56 125.94531 56 C 121.71019 56 107 67.082469 107 70.273438 C 107 70.774277 106.10617 72.320087 105.01367 73.708984 C 103.92116 75.097881 103.27231 76.631833 103.57227 77.117188 C 103.87224 77.602542 103.49845 78 102.74219 78 C 100.89191 78 95.134635 84.615801 94.384766 87.603516 C 93.843443 89.760318 93.244954 90 88.390625 90 C 83.732263 90 83 89.738561 83 88.072266 C 83 87.011551 83.722479 85.420099 84.605469 84.537109 C 86.27565 82.866929 86.17938 80.297277 84.160156 72.583984 C 83.021565 68.234651 79.915266 61.68349 78.744141 61.164062 C 78.328215 60.979587 78.241848 60.417087 78.552734 59.914062 C 78.863621 59.411038 78.614919 59 78 59 C 77.385081 59 77.160081 58.55 77.5 58 C 77.839919 57.45 77.614919 57 77 57 C 76.385081 57 76.152486 56.563144 76.482422 56.029297 C 77.143265 54.96003 74.370955 48.980401 72.611328 47.679688 C 71.988042 47.218958 72.999374 47.04419 74.917969 47.28125 C 79.295855 47.822177 85.361224 45.980547 92.943359 41.808594 C 99.242686 38.342487 100.32363 37.142646 99.033203 35.054688 C 98.443432 34.100419 96.475476 34.683668 90.988281 37.4375 C 85.102446 40.391396 82.808768 41.029559 78.912109 40.792969 C 73.697097 40.476334 72.754456 39.303334 73.597656 34.1875 C 74.109201 31.083865 74.389442 28.925801 74.435547 27.992188 L 74.751953 27.847656 C 74.807196 27.740406 74.847497 27.625502 74.873047 27.507812 C 74.902097 27.420901 74.919334 27.331244 74.927734 27.240234 C 74.931704 27.159952 74.953833 27.082469 74.976562 27.005859 C 75.011762 26.917355 75.031249 26.824669 75.042969 26.730469 C 75.042199 26.654339 75.065985 26.584126 75.078125 26.509766 C 75.113335 26.438734 75.1191 26.35891 75.125 26.28125 C 75.14566 26.2024 75.158816 26.122146 75.166016 26.041016 C 75.182781 25.962603 75.195349 25.883722 75.208984 25.804688 C 75.400755 25.799307 75.584194 25.80708 75.75 25.839844 C 76.81614 26.050519 77.344039 25.017651 77.201172 23 C 77.185586 22.779894 79.528752 22.711616 82.564453 22.746094 z M 74.71875 25.849609 C 74.709287 25.891736 74.702111 25.937634 74.6875 26.019531 C 74.66867 26.113846 74.653539 26.208074 74.636719 26.302734 C 74.627339 26.383325 74.609386 26.462769 74.597656 26.542969 C 74.589076 26.620328 74.569815 26.693438 74.546875 26.767578 C 74.532165 26.841648 74.516972 26.916428 74.513672 26.992188 C 74.499512 27.084034 74.475379 27.172506 74.443359 27.259766 C 74.430655 27.304409 74.426019 27.350768 74.417969 27.396484 C 74.388387 27.408558 74.34732 27.484405 74.291016 27.646484 C 74.071796 28.27754 73.022904 29.02256 71.958984 29.300781 C 70.895064 29.579002 69.556385 31.036515 68.984375 32.541016 C 67.725027 35.853351 66.505981 35.104715 67.394531 31.564453 C 67.951694 29.34454 72.091325 26.276176 74.71875 25.849609 z M 39.724609 27.015625 C 44.833635 27.03201 48.033125 28.243444 46.107422 29.433594 C 44.128718 30.6565 44.81568 35.830633 47.121094 37.064453 C 49.215448 38.185317 49.205822 38.224891 46.371094 40.09375 C 38.325452 45.398023 30.4863 38.739401 33.974609 29.564453 C 34.834886 27.301752 35.512753 27.002115 39.724609 27.015625 z M 98.75 27.453125 C 98.541667 27.37376 98.166666 27.690755 97.5 28.357422 C 96.675 29.182422 96 30.113449 96 30.427734 C 96 30.74202 96.675 31 97.5 31 C 98.350575 31 99 30.102338 99 28.927734 C 99 28.0071 98.958333 27.53249 98.75 27.453125 z M 70.419922 33.351562 C 70.823402 33.297263 71 34.018769 71 35.609375 C 71 41.227228 72.783497 42.355715 80.757812 41.785156 C 86.158744 41.398721 87.717359 41.574095 87.351562 42.527344 C 87.088126 43.213847 85.494136 44.051954 83.810547 44.388672 C 78.851687 45.380444 70.174007 45.088463 69.443359 43.90625 C 68.396663 42.212661 68.753112 34.846497 69.939453 33.660156 C 70.126372 33.473237 70.285428 33.369662 70.419922 33.351562 z M 29.261719 36.169922 C 29.363094 36.164984 29.507756 36.381835 29.699219 36.863281 C 30.156901 38.014151 30.376326 38.014151 31.105469 36.863281 C 31.744259 35.855023 31.973045 36.067203 31.984375 37.677734 C 32.003798 40.439535 36.466395 44.004031 39.884766 43.988281 C 41.323093 43.981656 44.457921 42.856656 46.851562 41.488281 C 49.245203 40.119906 52.057702 39 53.101562 39 C 55.712466 39 55.578005 42.619222 52.914062 44.044922 C 51.766957 44.658834 51.04352 45.377504 51.306641 45.640625 C 51.569762 45.903746 53.42724 45.239404 55.433594 44.164062 C 59.182638 42.154695 62.14376 42.261509 63.980469 44.474609 C 65.546224 46.361228 62.761326 48.194376 58.277344 48.228516 L 54.5 48.257812 L 58 49.46875 C 61.654411 50.732612 62.71155 53.238873 59.824219 53.794922 C 58.902404 53.972448 56.23071 53.191088 53.886719 52.058594 C 51.542728 50.926101 48.909471 50 48.035156 50 C 47.16084 50 45.445035 49.299546 44.222656 48.443359 C 43.000278 47.587172 42 47.336374 42 47.886719 C 42 48.437064 44.663682 50.083608 47.919922 51.544922 C 51.176162 53.006235 54.888662 55.336765 56.169922 56.724609 L 58.5 59.248047 L 56.25 58.556641 C 52.666569 57.455176 53.606797 59.71896 57.5 61.566406 C 59.425 62.479878 61 63.906651 61 64.736328 C 61 66.029167 60.74981 66.049279 59.25 64.873047 C 58.2875 64.118202 57.169703 63.05 56.765625 62.5 C 56.361547 61.95 56.024025 61.776589 56.015625 62.115234 C 55.988533 63.204569 42.769995 59.102399 40.923828 57.431641 C 39.943087 56.544083 38.395315 54.247789 37.484375 52.328125 C 36.573435 50.408462 35.622667 49.043349 35.371094 49.294922 C 34.800752 49.865264 37.810537 56.572632 40.287109 60.251953 C 42.625657 63.726218 42.227404 67.5 39.523438 67.5 C 38.194453 67.5 37.253205 66.517772 36.648438 64.5 C 34.632503 57.773966 34.289115 57.693677 34.392578 63.970703 C 34.477828 69.1428 34.180729 70.50591 32.908203 70.763672 C 30.143819 71.323625 28.753058 68.553461 29.833984 64.638672 C 30.584868 61.919195 30.517359 61.247798 29.529297 61.626953 C 27.246487 62.502949 27.127928 59.37088 29.283203 55.126953 C 31.209387 51.334124 31.289499 50.46385 30.197266 45.175781 C 29.205089 40.372139 28.822428 36.191319 29.261719 36.169922 z M 59.177734 36.992188 C 61.011321 37.000157 63.339657 37.548526 64.65625 38.470703 C 65.811482 39.279859 66.972405 41.079859 67.238281 42.470703 C 67.820828 45.518098 67.031665 45.68532 64.732422 43 C 63.75 41.852615 61.782502 41 60.117188 41 C 57.412162 41 55.379622 38.954361 56.736328 37.597656 C 57.15621 37.177775 58.077582 36.987406 59.177734 36.992188 z M 94.878906 37.375 C 95.231008 37.366936 95.554489 37.411805 95.830078 37.523438 C 97.225866 38.088828 97.094227 38.356295 95.027344 39.150391 C 93.667871 39.672701 92.306996 40.502524 92.001953 40.996094 C 91.69691 41.489664 90.869863 41.537771 90.164062 41.101562 C 88.563797 40.112544 92.414192 37.43145 94.878906 37.375 z M 106.93945 42.212891 C 108.12553 42.279995 109.25192 43.78397 108.55469 44.912109 C 108.18515 45.510031 107.50753 46 107.04883 46 C 105.71858 46 104.9824 43.129706 106.13086 42.419922 C 106.38944 42.260111 106.66574 42.197405 106.93945 42.212891 z M 130.47656 44 C 131.80999 44 131.87954 44.368037 130.90039 46.25 C 129.31319 49.300639 129.32568 49.292549 128.6543 47.542969 C 128.32862 46.694249 128.52464 46 129.08984 46 C 129.65504 46 129.83992 45.55 129.5 45 C 129.16008 44.45 129.59975 44 130.47656 44 z M 67.572266 46 C 68.255488 46 71 48.660363 71 49.322266 C 71 50.123319 68.224884 50.890903 67.597656 50.263672 C 66.834982 49.501002 66.814305 46 67.572266 46 z M 112.03125 47.240234 C 113.21679 47.274189 114.32758 48.661545 113.55469 49.912109 C 113.18515 50.510031 112.48508 51 112 51 C 110.45541 51 109.7328 48.866815 110.88672 47.712891 C 111.2316 47.368013 111.63607 47.228916 112.03125 47.240234 z M 63.994141 49.060547 C 64.478313 49.023095 65.114494 49.4338 65.84375 50.3125 C 66.672294 51.310834 66.10477 52.404375 63.466797 54.892578 C 61.560362 56.690776 60 57.730465 60 57.203125 C 60 56.675786 60.675 55.684689 61.5 55 C 62.325 54.315311 63 52.684609 63 51.376953 C 63 49.895809 63.371634 49.108699 63.994141 49.060547 z M 72.650391 49.787109 C 73.250731 49.733801 73.550501 50.160672 73.974609 50.953125 C 74.538233 52.006265 74.984334 53.234936 74.964844 53.683594 C 74.945354 54.132251 74.344703 53.447138 73.630859 52.160156 C 72.334961 49.823879 72.333984 49.824549 72.333984 52.814453 C 72.333984 54.738693 72.763275 55.644604 73.537109 55.347656 C 75.275728 54.680485 76.252145 57.990392 74.824219 59.710938 C 74.158864 60.512642 71.707684 62.480399 69.376953 64.083984 C 67.046223 65.687569 64.932313 67 64.677734 67 C 64.423155 67 63.538822 65.3125 62.712891 63.25 C 60.845905 58.587792 61.496715 57.267925 67.951172 52.630859 C 70.611484 50.719615 71.878525 49.855649 72.650391 49.787109 z M 115.5 52 C 114.80969 52 113.68469 52.675 113 53.5 C 112.00681 54.696716 112.00681 55.303284 113 56.5 C 113.68469 57.325 114.80969 58 115.5 58 C 116.19031 58 117.31531 57.325 118 56.5 C 118.99319 55.303284 118.99319 54.696716 118 53.5 C 117.31531 52.675 116.19031 52 115.5 52 z M 115.07812 53.212891 C 116.50068 53.052593 118.16007 54.018406 117.75 55.25 C 117.1934 56.921686 114.36402 57.398368 113.48047 55.96875 C 113.09211 55.340375 113.24521 54.354405 113.82031 53.779297 C 114.15629 53.443322 114.60394 53.266323 115.07812 53.212891 z M 132.4707 53.693359 C 133.24177 53.687173 134.27392 54.304428 134.8418 55.550781 C 136.14355 58.407809 140.00214 59.605014 142.90625 58.050781 C 145.54748 56.637237 145.762 58.465407 143.35742 61.898438 C 141.91568 63.956805 141.6055 64.045095 140.80859 62.621094 C 140.30939 61.729074 139.24884 61 138.45117 61 C 136.17055 61 136.7532 62.566833 139.5 63.818359 C 140.875 64.444851 141.9928 65.304225 141.98438 65.728516 C 141.94512 67.706072 140.36732 68.699319 138.42188 67.970703 C 136.08275 67.094648 132.43273 58.725584 133.58008 56.869141 C 134.01052 56.17268 133.88029 55.956344 133.25977 56.339844 C 132.68243 56.696665 131.96587 56.352496 131.66797 55.576172 C 131.18942 54.329102 131.69963 53.699545 132.4707 53.693359 z M 179.87109 56.216797 C 180.08577 56.22588 180.22451 56.804943 180.375 57.957031 C 180.44375 58.483355 181.39891 59.571293 182.49805 60.375 C 183.59718 61.178707 184.27218 62.04331 183.99805 62.294922 C 183.61085 62.650311 180.04857 61.510513 178.22852 60.449219 C 178.0792 60.362151 178.38907 59.211882 178.91602 57.894531 C 179.36669 56.76788 179.65642 56.207713 179.87109 56.216797 z M 32.558594 58 C 32.316053 58 31.839919 58.45 31.5 59 C 31.160081 59.55 31.358947 60 31.941406 60 C 32.523865 60 33 59.55 33 59 C 33 58.45 32.801135 58 32.558594 58 z M 76.349609 58.867188 L 79.662109 64.683594 C 83.203656 70.900957 84.170307 76.663364 81.5 75.638672 C 80.441036 75.232309 80 75.722895 80 77.308594 C 80 80.630285 77.231185 84 74.501953 84 C 71.819279 84 71.006382 83.034484 69.943359 78.587891 C 69.753013 77.791678 69.614579 77.241342 69.505859 76.880859 L 69.615234 76.824219 C 69.611834 76.340388 69.612627 75.856884 69.613281 75.373047 C 69.613534 75.209053 69.613107 75.044853 69.613281 74.880859 C 69.609981 74.693709 69.610619 74.50748 69.611328 74.320312 C 69.611369 74.310588 69.61129 74.30074 69.611328 74.291016 C 71.362941 75.058793 71.415537 74.272958 69.542969 72.400391 C 67.721858 70.57928 68.408631 68.665364 72.851562 63.183594 L 76.349609 58.867188 z M 127.20703 59.039062 C 128.90713 59.086248 130.29076 59.596391 130.65625 60.548828 C 131.37553 62.423242 128.36431 64.92427 125.33398 64.96875 C 124.14232 64.986241 123.0148 65.457554 122.82812 66.017578 C 122.35967 67.422961 112 68.590885 112 67.238281 C 112 66.29243 115.61799 63.750294 121.86523 60.304688 C 123.49185 59.40754 125.50693 58.991877 127.20703 59.039062 z M 22.845703 61.109375 C 25.447907 61.251487 27.836833 63.404486 27.240234 66.525391 C 26.880469 68.40738 26.135381 69.003292 24.132812 69.013672 C 22.684429 69.021182 20.375 69.316087 19 69.669922 C 16.542142 70.302415 16.531468 70.278394 18.326172 68.244141 C 19.946486 66.407554 19.971503 66.13778 18.548828 65.837891 C 17.084278 65.529176 17.081898 65.305913 18.529297 63.25 C 19.646597 61.662966 21.284381 61.024108 22.845703 61.109375 z M 44.603516 62.269531 C 44.946582 62.273098 45.401872 62.374541 46 62.521484 C 47.375 62.859283 49.571653 63.828365 50.880859 64.675781 L 53.261719 66.216797 L 50.380859 68.572266 C 48.018443 70.50424 44.213805 71.788939 43.931641 70.75 C 43.894297 70.6125 43.781797 68.566177 43.681641 66.203125 C 43.550936 63.119329 43.574315 62.25883 44.603516 62.269531 z M 177.60352 62.458984 C 177.90423 62.45818 178.34915 62.651674 179 63 C 181.80503 64.501207 181.48708 67.471292 178.25 70.017578 C 175.82989 71.921233 174.74433 72.098294 169.17578 71.501953 C 164.23756 70.973114 162.48383 71.153891 161.17578 72.328125 C 160.25425 73.155376 158.375 73.783919 157 73.724609 C 155.625 73.665295 153.11002 73.948838 151.41016 74.353516 C 149.20867 74.877615 147.97173 74.669522 147.11133 73.632812 C 145.70648 71.940063 147.04732 70.697494 149.33203 71.574219 C 152.15895 72.65901 155 70.180446 155 66.630859 C 155 61.988145 156.02053 61.506278 158.21289 65.111328 C 159.73959 67.621789 160.59796 68.119599 162.70508 67.716797 C 164.24623 67.422188 166.52468 67.95673 168.28516 69.027344 C 172.70971 71.71807 177 69.377842 177 64.273438 C 177 63.002077 177.10232 62.460325 177.60352 62.458984 z M 130.05859 65 C 131.12613 65 132 65.45 132 66 C 132 66.55 130.84887 67 129.44141 67 C 127.99005 67 127.14948 66.567158 127.5 66 C 127.83992 65.45 128.99105 65 130.05859 65 z M 153 66 C 154.35591 66 154.26099 67.340572 152.80078 68.800781 C 152.14078 69.460781 151.12828 69.965296 150.55078 69.921875 C 149.97328 69.878454 150.0625 69.615304 150.75 69.337891 C 151.4375 69.060479 152 68.195182 152 67.416016 C 152 66.636849 152.45 66 153 66 z M 66.810547 67.046875 C 67.504161 66.97887 67.755215 67.977833 67.369141 69.908203 C 66.911633 72.195747 67.235359 73.056442 68.892578 73.943359 C 69.047133 74.026075 69.169226 74.076145 69.306641 74.142578 L 69.265625 74.164062 C 69.265799 74.274608 69.267106 74.385549 69.267578 74.496094 C 69.267935 74.591829 69.265621 74.687463 69.265625 74.783203 L 69.193359 74.820312 C 69.193579 75.075109 69.192965 75.331142 69.193359 75.585938 C 69.193886 75.950531 69.194469 76.315095 69.193359 76.679688 C 69.155712 76.943419 69.127744 77.380866 69.101562 78.027344 C 68.959725 81.529569 71.639328 85 74.484375 85 C 76.927573 85 81 80.853047 81 78.365234 C 81 76.679745 82.209164 76.607602 83.800781 78.199219 C 85.253918 79.652356 85.39259 83 84 83 C 83.45 83 82.994325 83.5625 82.986328 84.25 C 82.978332 84.9375 74.090832 89.190245 63.236328 93.701172 C 52.381825 98.2121 42.756431 102.18168 41.847656 102.52148 C 40.584501 102.99379 39.624372 101.88694 37.771484 97.820312 L 35.347656 92.5 L 38.777344 91.890625 C 42.259536 91.271878 43.930445 89.711695 44.015625 87 C 44.041538 86.175 44.723742 84.626216 45.53125 83.558594 C 46.338759 82.490973 47 81.253473 47 80.808594 C 47 78.978648 42.812447 76 40.240234 76 C 38.563787 76 36.991237 75.215057 36.232422 74 C 35.040162 72.09089 35.23404 72 40.492188 72 C 45.139982 72 46 72.282354 46 73.808594 C 46 74.803473 46.639923 76.490973 47.421875 77.558594 C 48.393834 78.885638 48.67033 80.962827 48.296875 84.125 C 47.844553 87.954962 48.115842 89.115842 49.875 90.875 C 52.56969 93.56969 53.204599 93.540615 56.757812 90.550781 C 58.630003 88.975437 60.40905 88.293955 61.742188 88.642578 C 64.188114 89.282203 68 85.940188 68 83.15625 C 68 82.142353 67.100748 78.69956 66.001953 75.505859 C 64.501083 71.143505 64.283401 69.363673 65.125 68.349609 C 65.819511 67.512774 66.394378 67.087678 66.810547 67.046875 z M 133.64844 67.414062 C 134.42149 67.319763 135.37394 67.946443 137.4082 69.498047 L 141 72.238281 L 141 81.119141 C 141 86.003862 140.65102 90 140.22461 90 C 139.7982 90 137.47978 85.471435 135.07227 79.9375 C 131.10664 70.822071 130.84072 69.729593 132.25391 68.316406 C 132.78385 67.786461 133.18461 67.470642 133.64844 67.414062 z M 121.5 68.03125 C 122.05 68.03125 121.825 68.466844 121 69 C 120.175 69.533156 119.05 69.96875 118.5 69.96875 C 117.95 69.96875 118.175 69.533156 119 69 C 119.825 68.466844 120.95 68.03125 121.5 68.03125 z M 110.77734 68.115234 C 111.21153 68.050857 111.28427 68.785016 111.49023 70.75 C 111.6196 71.9875 111.67568 72.948566 111.61328 72.884766 C 111.55088 72.820965 110.7125 72.562075 109.75 72.310547 C 107.60418 71.749787 107.52058 70.642773 109.5 69 C 110.12637 68.480156 110.51683 68.153861 110.77734 68.115234 z M 57.617188 68.333984 C 58.354503 68.340008 58.753763 68.600634 59.074219 69.119141 C 59.510816 69.825564 59.666788 70.731421 59.419922 71.130859 C 59.173056 71.530297 59.988718 72.000912 61.234375 72.177734 C 62.97558 72.424899 63.899561 73.705696 65.230469 77.716797 C 67.095365 83.337236 66.797933 85.501851 63.951172 87.025391 C 62.628779 87.733115 61.701025 87.558447 60.521484 86.378906 C 59.632098 85.48952 58.791742 84.927883 58.654297 85.130859 C 58.516852 85.333836 57.874182 86.7375 57.224609 88.25 C 55.953354 91.210057 52.394336 91.995898 50.199219 89.800781 C 48.201491 87.803053 48.809127 83.10103 51.398438 80.511719 L 53.796875 78.113281 L 51.148438 77.806641 C 49.260464 77.588055 48.406807 76.838784 48.173828 75.195312 C 47.730918 72.070955 49.207635 70.554526 54.128906 69.080078 C 55.805082 68.577885 56.879872 68.32796 57.617188 68.333984 z M 23.486328 70 C 25.841344 69.997102 28.190348 70.523116 28.949219 71.4375 C 29.921496 72.609022 29.58282 73.164492 27.121094 74.4375 C 23.993454 76.054866 19.828841 76.49681 18.666016 75.333984 C 17.429887 74.097856 17.988137 71.219057 19.582031 70.607422 C 20.65785 70.194592 22.073319 70.001739 23.486328 70 z M 115.5 70 C 116.325 70 117 70.176422 117 70.392578 C 117 70.608734 116.325 71.044746 115.5 71.361328 C 114.675 71.677911 114 71.501489 114 70.96875 C 114 70.436012 114.675 70 115.5 70 z M 127.02344 70 C 128.17549 70 129.75335 72.286641 131.86523 77.009766 C 133.58887 80.864607 135 84.355582 135 84.769531 C 135 85.566782 142.8628 103.93924 144.83594 107.75195 C 147.59068 113.07494 148.10589 114.24187 149.47266 118.26758 C 156.79596 139.83787 156.75838 158.74566 149.35547 176.58398 C 145.22161 186.54507 139.79309 195.14904 133.16211 202.25 L 128.72656 207 L 117.11328 206.98438 C 110.72604 206.97595 104.825 206.53316 104 206 C 103.175 205.46684 101.48922 205.02363 100.25391 205.01562 C 97.471664 204.99665 85.975139 201.07996 84.339844 199.59375 C 83.678256 198.99248 80.296639 196.925 76.824219 195 C 65.962876 188.97881 48.685196 169.36374 46.001953 160.00781 C 45.57115 158.50569 44.266334 155.52726 43.101562 153.38867 C 41.936792 151.25008 39.823315 146.8 38.404297 143.5 C 36.985279 140.2 34.963536 135.66973 33.912109 133.43359 C 32.860682 131.19744 32 128.82873 32 128.16992 C 32 127.5111 31.603614 126.19137 31.119141 125.23633 C 28.330396 119.7389 26.003657 114.10095 26.023438 112.89062 C 26.037323 112.04094 32.551702 108.82045 42.773438 104.61133 C 61.909362 96.731504 64.945004 95.449157 70.566406 92.867188 C 72.802555 91.840101 75.165055 91 75.816406 91 C 76.467758 91 77 90.55 77 90 C 77 89.45 77.9 89 79 89 C 80.1 89 81 89.45 81 90 C 81 90.571169 83.99317 91 87.980469 91 C 94.770991 91 94.979695 90.924986 95.615234 88.25 C 96.293517 85.395102 98.728649 82 100.09766 82 C 100.53066 82 103.74394 80.206569 107.23828 78.015625 C 113.4535 74.118693 123.62095 70 127.02344 70 z M 182.46289 70.439453 C 182.64841 70.432621 182.82812 70.434962 183 70.449219 C 185.3361 70.642994 185.53278 71.08879 186 77.25 C 186.36397 82.049704 187.07215 84.477211 188.60156 86.171875 C 189.7571 87.452279 190.96675 89.255446 191.29102 90.177734 C 191.98501 92.15162 189.59898 94.487786 187.9375 93.460938 C 187.1406 92.968423 186.99391 93.403501 187.46094 94.875 C 187.83191 96.043876 187.87146 97.831122 187.54883 98.847656 C 187.22619 99.86419 185.83933 101.20862 184.4668 101.83398 C 180.97692 103.42408 177.6608 100.23995 178.63477 96.234375 C 179.28175 93.573544 179.24569 93.547144 177.31836 95.251953 C 176.22887 96.215653 175.03584 96.703805 174.66797 96.335938 C 173.39665 95.064616 174.00728 90.799043 175.83789 88.154297 C 176.8484 86.694394 177.96554 84.825 178.32227 84 C 178.67899 83.175 179.76157 81.407876 180.72656 80.072266 C 181.69156 78.736656 178.66453 81.549156 174 86.322266 C 169.33547 91.095376 165.17746 95 164.75977 95 C 164.34207 95 164 93.975278 164 92.722656 C 164 91.470035 163.34235 89.506259 162.53906 88.359375 C 161.20936 86.46096 161.29895 86.067362 163.53906 83.962891 C 166.09081 81.565649 167.0434 78.888056 164.63281 80.888672 C 163.52371 81.809146 163.15904 81.224032 162.69727 77.78125 C 162.3626 75.286096 162.55765 73.272192 163.17188 72.892578 C 163.74628 72.537576 167.10158 72.478736 170.62695 72.761719 C 175.49263 73.152289 177.45307 72.911518 178.76758 71.759766 C 179.60094 71.02959 181.16424 70.487278 182.46289 70.439453 z M 13.271484 70.869141 C 13.536122 70.77423 14.026964 71.30168 14.699219 72.650391 C 17.231904 77.731586 22.132007 79.223256 27.353516 76.5 C 28.923259 75.681309 30.680076 75.303095 31.257812 75.660156 C 31.9003 76.057235 32.007917 75.823538 31.535156 75.058594 C 31.001765 74.19555 31.34149 73.91966 32.630859 74.167969 C 35.234131 74.669314 34.966498 77.209282 32.162109 78.607422 C 30.875958 79.248638 30.249548 80.036801 30.771484 80.359375 C 31.293421 80.68195 32.045812 80.620203 32.443359 80.222656 C 32.840907 79.825108 33.467318 79.466984 33.833984 79.427734 C 34.200651 79.388487 35.638707 78.800131 37.029297 78.119141 C 40.681301 76.330707 45.257886 78.171107 44.820312 81.251953 C 44.554037 83.126732 43.877419 83.5 40.75 83.5 C 36.433597 83.5 35.87277 84.62093 39.5 86 C 40.875 86.522774 42 87.635996 42 88.474609 C 42 90.609149 40.015121 90.393014 39.9375 88.25 C 39.888935 86.909192 39.661671 87.026104 38.96875 88.75 C 38.471336 89.9875 37.796095 91 37.46875 91 C 35.785208 91 25.574781 85.301343 23.449219 83.175781 C 22.102131 81.828693 21.01376 81.125781 21.03125 81.613281 C 21.066882 82.606344 24 86.724281 24 85.78125 C 24 85.081334 29.284808 89.419816 32.667969 92.896484 C 33.950338 94.214296 34.992775 95.789296 34.984375 96.396484 C 34.975953 97.003671 34.533156 96.825 34 96 C 32.63485 93.887581 32.677244 96.465012 34.054688 99.316406 C 35.073972 101.42639 35.05697 101.43371 33.554688 99.558594 C 32.699347 98.490973 32 97.939738 32 98.333984 C 32 101.03425 19.908763 90.330832 16.310547 84.445312 C 15.293554 82.781838 15.236073 82.935145 15.919922 85.5 C 16.35985 87.15 17.682663 90.075 18.857422 92 C 21.300342 96.003049 21.595073 99.802748 19.669922 102.43555 C 18.568461 103.94189 17.968863 104.05456 16.169922 103.0918 C 14.219176 102.04779 14 102.1754 14 104.35742 C 14 106.9356 12.612084 107.878 9.75 107.24219 C 6.3667962 106.4906 7.8972747 97.689309 12 94.302734 C 13.139746 93.361935 13.181797 93.055416 12.177734 93.03125 C 11.450949 93.013759 10.177712 93.679711 9.3476562 94.509766 C 7.7123948 96.145028 6 95.667976 6 93.578125 C 6 92.861212 7.3610099 90.562596 9.0234375 88.470703 C 10.685865 86.37881 12.328524 83.505219 12.675781 82.083984 C 13.023038 80.66275 13.706728 79.238602 14.193359 78.917969 C 14.696153 78.586687 14.629354 77.154147 14.039062 75.601562 C 13.017041 72.913441 12.830421 71.027325 13.271484 70.869141 z M 154.96484 75.585938 C 157.29869 75.538298 159.97685 76.776732 160.66211 78.5625 C 160.99823 79.438403 160.53019 80.899493 159.62109 81.808594 C 158.25986 83.169822 157.62063 83.243788 155.99805 82.230469 C 153.37454 80.592056 153.30688 80.618927 152.76172 83.470703 C 152.50206 84.829058 152.69936 85.685134 153.20117 85.375 C 155.04224 84.237155 158.56789 85.997032 160.29102 88.914062 C 162.34482 92.390861 161.73514 96.537409 158.95117 98.027344 C 157.9506 98.562836 156.70027 99 156.17383 99 C 155.23045 99 152.14699 92.257297 151.43945 88.648438 C 151.05723 86.698914 148.95567 83.712302 148.375 84.292969 C 148.18778 84.480187 148.43988 86.047121 148.93555 87.775391 C 149.70155 90.446284 149.54849 91.007886 147.91797 91.525391 C 146.86291 91.860257 146 92.609172 146 93.189453 C 146 93.802265 146.69644 93.670208 147.66211 92.873047 C 149.0878 91.696183 149.25495 91.713759 148.83008 93 C 148.1716 94.993418 144.95959 95.543678 143.88477 93.847656 C 142.92189 92.328222 142.91368 84.965129 143.86914 80.638672 L 144.5 77.779297 L 146.4043 79.888672 C 149.02982 82.797233 150.58944 82.548179 148.61523 79.535156 C 146.55477 76.390504 146.58613 76.078912 148.89844 76.683594 C 149.94221 76.956546 151.71182 76.689366 152.83203 76.089844 C 153.44675 75.760856 154.18689 75.601817 154.96484 75.585938 z M 88.261719 85.09375 C 87.197004 85.081305 86.768726 85.816731 87.458984 86.933594 C 88.289363 88.277177 89.693331 88.303725 90.503906 86.992188 C 90.846226 86.438304 90.403112 85.708202 89.519531 85.369141 C 89.040869 85.185461 88.616624 85.097898 88.261719 85.09375 z M 155.24609 93.064453 C 154.93932 92.942443 155.18066 93.454244 155.87109 94.75 C 157.27735 97.389137 158.54403 97.629257 159.39258 95.417969 C 160.28469 93.093158 160.10404 92.286473 159.06055 93.935547 C 158.27111 95.183144 157.92408 95.183144 156.41211 93.935547 C 155.8109 93.439463 155.43016 93.137659 155.24609 93.064453 z M 15.212891 97 C 14.779934 97 14.357194 97.909597 14.273438 99.021484 C 14.189681 100.13337 14.543833 100.78223 15.060547 100.46289 C 16.197205 99.760394 16.318654 97 15.212891 97 z M 33 104 C 33.55 104 34 104.42387 34 104.94141 C 34 105.45895 33.55 106.16008 33 106.5 C 32.45 106.83992 32 106.41605 32 105.55859 C 32 104.70113 32.45 104 33 104 z M 162.31055 105.66211 C 162.97888 105.62824 164.06376 105.75123 165.74414 105.9668 C 171.27075 106.6758 173 107.5393 173 109.58984 C 173 111.91332 170.11652 112.41581 167.96289 110.4668 C 166.20411 108.87513 166 108.85943 166 110.32422 C 166 111.22725 167.80726 112.88096 170.03906 114.01953 C 174.23235 116.15879 176.68163 119.78043 175.6875 122.37109 C 173.52889 127.99633 165.03887 124.78013 164.98438 118.31641 C 164.96577 116.11056 163.33306 113.33491 162.52734 114.14062 C 162.20705 114.46092 162.37321 115.85292 162.89844 117.23438 C 163.97177 120.05744 162.73638 122 159.86719 122 C 157.79003 122 156.71594 119.14036 157.45898 115.58594 C 157.7562 114.16417 158.24783 111.81766 158.55078 110.37305 L 159.10156 107.74609 L 161.77148 110.12305 C 163.23938 111.43016 163.94534 111.825 163.3418 111 C 162.73826 110.175 161.95965 108.56739 161.61133 107.42773 C 161.23912 106.20994 161.19665 105.71856 162.31055 105.66211 z M 159.61133 118.34375 C 159.25273 118.28346 159 118.50456 159 118.94141 C 159 119.52387 159.45 120 160 120 C 160.55 120 161 119.80113 161 119.55859 C 161 119.31605 160.55 118.83992 160 118.5 C 159.8625 118.41502 159.73086 118.36385 159.61133 118.34375 z "
     id="path60" />
  <path
     style="fill:#b3b3b3;stroke-width:0.45127118"
     d="m 84.538893,89.596354 c -1.807251,-0.352438 -1.676245,-2.465872 0.309321,-4.990111 1.256234,-1.59704 1.169485,-5.598069 -0.237244,-10.942176 -1.159595,-4.405251 -4.864771,-12.635593 -5.688354,-12.635593 -0.257058,0 -0.334643,-0.401398 -0.174881,-0.904765 0.190852,-0.601322 0.0497,-0.995887 -0.42086,-1.176459 -0.389413,-0.149432 -0.708023,-0.656112 -0.708023,-1.125955 0,-0.469844 -0.203072,-0.854262 -0.451271,-0.854262 -0.248199,0 -0.451271,-0.59238 -0.451271,-1.316401 0,-1.430212 -1.20415,-4.403282 -2.685604,-6.630811 l -0.933607,-1.403779 3.953143,-0.24983 c 4.748415,-0.300089 8.716358,-1.595162 15.107615,-4.930881 6.639766,-3.465422 8.885233,-5.929986 6.902237,-7.575723 -0.92552,-0.768112 -2.278717,-0.36731 -8.371555,2.479561 -6.271725,2.930456 -8.736818,3.549431 -12.545824,3.150207 -3.301084,-0.345989 -4.585304,-1.29954 -4.585304,-3.40465 0,-3.438331 1.544618,-11.257387 2.20861,-11.180274 0.947908,0.110086 1.319862,-0.230728 1.559505,-1.428944 l 0.270763,-1.353814 6.893167,0.03953 c 3.791242,0.02174 7.908527,0.174048 9.149523,0.338454 2.029946,0.268924 2.27052,0.421744 2.397513,1.522965 0.124632,1.08075 0.289856,1.194307 1.411354,0.970007 0.992387,-0.198477 1.432197,-0.02205 2.010893,0.806674 0.407383,0.583392 1.538421,2.157855 2.513411,3.498804 1.32692,1.824985 1.84923,3.050587 2.07702,4.873751 0.31901,2.553255 1.08149,3.744303 2.39702,3.744303 0.43123,0 1.16615,0.279394 1.63316,0.620876 0.80169,0.586215 0.76242,0.664831 -0.70348,1.408232 -2.32858,1.180896 -3.13202,2.044309 -3.13202,3.365833 0,1.576539 0.76952,2.276669 2.50231,2.276669 1.83886,0 2.91295,-1.219472 2.91295,-3.30725 0,-2.071079 0.58108,-2.117436 1.52803,-0.121902 0.95445,2.011354 0.97434,1.919274 -0.85113,3.939846 -1.7486,1.935492 -1.92407,2.690385 -0.87031,3.744148 1.12397,1.123971 3.07894,1.074103 4.40516,-0.112368 0.59682,-0.533931 0.78203,-1.213871 0.66498,-2.441262 -0.17968,-1.884145 -0.0795,-1.969273 1.18886,-1.009954 0.54855,0.414902 1.90791,0.662555 3.63674,0.662555 1.51842,0 3.09469,0.253841 3.50284,0.564089 0.88995,0.676495 3.94313,5.694772 3.94313,6.481029 0,0.30513 -0.65998,0.697234 -1.46663,0.871344 -5.33529,1.15159 -16.53606,9.820477 -18.61346,14.405975 -0.56607,1.249515 -1.5595,2.971282 -2.20762,3.826147 -0.64811,0.854866 -1.17839,2.02253 -1.17839,2.59481 0,0.650931 -0.26908,1.040505 -0.71869,1.040505 -1.32286,0 -6.418705,5.609905 -7.851968,8.64405 -0.909936,1.926287 -1.685652,2.959409 -2.370309,3.156836 -1.122908,0.323805 -6.322495,0.370074 -7.86145,0.06996 z m 5.868932,-2.469144 c 0.663048,-1.058054 -0.373931,-2.181363 -2.01372,-2.181363 -1.054169,0 -1.298558,0.195337 -1.298558,1.037923 0,2.036601 2.263001,2.817819 3.312278,1.14344 z M 116.814,57.677784 c 0.68395,-0.353686 1.47872,-1.159223 1.76616,-1.790083 0.45402,-0.996444 0.37142,-1.326709 -0.62916,-2.515835 -1.46899,-1.745795 -3.21461,-1.810313 -4.84582,-0.179101 -0.65435,0.654343 -1.18972,1.378446 -1.18972,1.609116 0,0.897109 0.9805,2.178209 2.15489,2.815523 1.52357,0.826815 1.27222,0.821284 2.74365,0.06038 z M 99.001654,29.830748 c 0.503082,-1.439329 0.09349,-2.721568 -0.764236,-2.39243 -0.942269,0.361583 -2.649866,2.856982 -2.320124,3.390516 0.568244,0.919438 2.649542,0.245939 3.08436,-0.998086 z"
     id="path90"
     inkscape:connector-curvature="0" />
  <path
     style="fill:#ff0000;stroke-width:0.45127118"
     d="m 112.818,67.33604 c -0.88466,-0.585083 0.10156,-1.394185 6.03548,-4.951543 4.71313,-2.825503 7.3619,-3.590885 9.90398,-2.861825 1.18072,0.338624 1.43449,0.639299 1.43449,1.699626 0,1.64378 -1.65927,2.927896 -4.45918,3.450975 -1.1461,0.214115 -2.64237,0.801369 -3.32504,1.305009 -0.78134,0.576435 -2.49519,1.077929 -4.62574,1.353551 -4.21482,0.545253 -4.146,0.545195 -4.96399,0.0042 z"
     id="path92"
     inkscape:connector-curvature="0" />
  <path
     style="fill:#ff0000;stroke-width:0.0564089"
     d="m 112.64477,67.648809 c -0.63058,-0.164498 -0.73539,-0.351649 -0.44823,-0.800375 0.39113,-0.611193 1.61227,-1.604097 3.50084,-2.846523 1.84659,-1.214803 5.7094,-3.474333 6.80055,-3.977948 2.03974,-0.941431 4.76859,-1.221395 6.5454,-0.671524 0.49931,0.15452 0.72529,0.269901 1.08406,0.553496 0.67854,0.536351 0.78606,1.472309 0.27026,2.352461 -0.66841,1.140557 -2.20727,2.151486 -3.86451,2.538725 -0.32614,0.07621 -1.74914,0.211215 -1.79049,0.169873 -0.0233,-0.02333 0.58995,-0.181852 1.32079,-0.341395 1.51474,-0.330664 2.69858,-0.898171 3.38152,-1.62103 0.57251,-0.605972 0.78169,-1.164355 0.74379,-1.985445 -0.0404,-0.876023 -0.26392,-1.141077 -1.22041,-1.447467 -2.18431,-0.699697 -4.41684,-0.27829 -7.76584,1.465863 -0.98339,0.512145 -1.74017,0.948319 -3.61017,2.080755 -3.98991,2.416202 -5.25457,3.394862 -5.05499,3.911817 0.0846,0.21911 0.54458,0.562076 0.89562,0.667776 0.32071,0.09657 -0.40251,0.05155 -0.78819,-0.04906 z"
     id="path94"
     inkscape:connector-curvature="0" />
  <path
     style="fill:#ff0000;stroke-width:0.0564089"
     d="m 114.29241,67.750156 c 1.29166,-0.07313 4.38953,-0.492024 5.41525,-0.732255 1.29833,-0.304079 2.01716,-0.576843 2.75671,-1.046045 0.26327,-0.167027 0.48867,-0.293677 0.50091,-0.281443 0.0412,0.04125 -0.25608,0.464159 -0.42812,0.608917 -0.86733,0.729809 -5.24386,1.532811 -8.18834,1.502389 l -0.81793,-0.0085 z"
     id="path96"
     inkscape:connector-curvature="0" />
  <path
     style="fill:#ff0000;stroke-width:0.07977423"
     d="m 74.778429,44.922732 c -2.691024,-0.151517 -4.628126,-0.476194 -5.124835,-0.858974 -0.208804,-0.160912 -0.46254,-0.795938 -0.590324,-1.477411 -0.160851,-0.857818 -0.227457,-3.583408 -0.117189,-4.795543 0.202343,-2.224293 0.539069,-3.545326 1.03715,-4.068919 0.393255,-0.413396 0.612773,-0.418877 0.781371,-0.01951 0.09299,0.220277 0.143553,0.747835 0.191758,2.00087 0.09235,2.40048 0.314578,3.446913 0.930874,4.383295 0.533294,0.810272 1.431828,1.341364 2.746675,1.623465 1.084162,0.232607 3.55684,0.281864 6.007926,0.119681 4.889466,-0.323526 6.514143,-0.240142 6.699492,0.343839 0.19001,0.598667 -1.243062,1.572015 -2.994599,2.033943 -0.86368,0.227775 -2.531845,0.477578 -3.991105,0.597657 -1.078388,0.08874 -4.724421,0.165622 -5.577194,0.117607 z"
     id="path98"
     inkscape:connector-curvature="0" />
  <path
     style="fill:#ff0000;stroke-width:0.15954846"
     d="m 90.473785,41.177993 c -0.585506,-0.235906 -0.713518,-0.671086 -0.365663,-1.243087 0.999089,-1.642871 4.580854,-2.950517 6.029632,-2.201324 0.279457,0.144512 0.508104,0.332261 0.508104,0.417219 0,0.08496 -0.879511,0.574477 -1.954469,1.087819 -1.120459,0.535072 -2.214625,1.182274 -2.564135,1.516693 -0.611887,0.585465 -1.001957,0.68518 -1.653469,0.42268 z"
     id="path100"
     inkscape:connector-curvature="0" />
  <path
     style="fill:#ff0000;stroke-width:0.00498589"
     d=""
     id="path102"
     inkscape:connector-curvature="0" />
  <path
     style="fill:#ff0000;stroke-width:0.00498589"
     d="m 130.72016,61.066434 c -0.0147,-0.391687 -0.17261,-0.75721 -0.44539,-1.031114 -0.0689,-0.06917 -0.12084,-0.113137 -0.23891,-0.202198 -0.27408,-0.206737 -0.48456,-0.315136 -0.84475,-0.435048 -0.27211,-0.09059 -0.51819,-0.153901 -0.79525,-0.204604 -1.45246,-0.265809 -3.32867,-0.09276 -4.96096,0.457558 -0.31979,0.107816 -0.5974,0.216737 -0.88612,0.347672 -0.10745,0.04873 -0.41187,0.198884 -0.50507,0.249123 -0.0251,0.01354 -0.0471,0.02461 -0.0489,0.02461 -0.002,0 -0.003,-0.0079 -0.003,-0.01748 v -0.01748 l 0.19321,-0.0961 c 0.32918,-0.163735 0.60724,-0.284349 0.94856,-0.411462 1.48984,-0.554837 3.20686,-0.794162 4.67178,-0.651173 0.774,0.07555 1.45175,0.260107 1.94072,0.528476 0.55994,0.307319 0.88235,0.701366 0.98285,1.201207 0.0198,0.09865 0.0329,0.21782 0.033,0.3004 l 5e-5,0.04113 h -0.0192 -0.0192 l -0.003,-0.08351 z"
     id="path104"
     inkscape:connector-curvature="0" />
  <path
     style="fill:#ff0000;stroke-width:0.00498589"
     d="m 121.99148,60.651597 c 0,-0.0066 0.0384,-0.02695 0.15485,-0.08208 2.42989,-1.150792 4.2418,-1.520496 5.95037,-1.214118 0.39766,0.07131 0.85991,0.20042 1.20434,0.336392 0.40197,0.158688 0.61119,0.320703 0.73485,0.569065 0.0371,0.07449 0.0354,0.08363 -0.002,0.01231 -0.17657,-0.334166 -0.50498,-0.529004 -1.25878,-0.746813 -0.67488,-0.195008 -1.3538,-0.282818 -2.02286,-0.261637 -0.17438,0.0055 -0.21546,0.0077 -0.38283,0.0207 -1.1991,0.09286 -2.60187,0.526223 -4.24424,1.311181 -0.10624,0.05078 -0.13337,0.06197 -0.13337,0.055 z"
     id="path106"
     inkscape:connector-curvature="0" />
  <path
     style="fill:#ff0000;stroke-width:0.00705111"
     d="m 93.95446,39.613037 c 0.01257,-0.01187 0.520873,-0.266947 0.77527,-0.389056 0.984541,-0.472573 1.837988,-0.943413 1.910425,-1.053966 0.01175,-0.01792 0.01174,-0.02037 -4.9e-5,-0.05124 -0.03322,-0.08698 -0.264927,-0.266755 -0.496446,-0.385179 -0.405948,-0.207648 -0.963941,-0.267632 -1.671296,-0.179663 -0.672488,0.08363 -1.444409,0.314953 -2.16998,0.650273 l -0.11458,0.05295 v -0.04864 -0.04864 l 0.0899,-0.04502 c 0.128364,-0.06428 0.336249,-0.159135 0.488078,-0.222691 0.655051,-0.274206 1.267747,-0.439504 1.847603,-0.498461 0.145868,-0.01483 0.51662,-0.01711 0.631075,-0.0039 0.283447,0.03276 0.436825,0.07353 0.708637,0.18837 0.556579,0.235144 0.792368,0.406957 0.792368,0.577376 0,0.12358 -0.129759,0.257339 -0.401032,0.413392 -0.1044,0.06006 -0.368624,0.188661 -0.549986,0.267689 -0.127643,0.05562 -0.500419,0.205991 -0.877864,0.354113 -0.246294,0.09665 -0.557312,0.233135 -0.810221,0.355542 -0.148916,0.07207 -0.165094,0.07918 -0.151903,0.06673 z"
     id="path108"
     inkscape:connector-curvature="0" />
  <path
     style="fill:#ff0000;stroke-width:0.00390625"
     d="m 91.078156,41.396378 c -0.296411,-0.01586 -0.595666,-0.10966 -0.877089,-0.274933 -0.19865,-0.116663 -0.326021,-0.257338 -0.380352,-0.420082 -0.02423,-0.07259 -0.02939,-0.108189 -0.0294,-0.202782 -6e-6,-0.09462 0.0032,-0.119754 0.02707,-0.211239 0.08306,-0.318605 0.356811,-0.69329 0.787242,-1.07749 0.05539,-0.04944 0.204113,-0.174625 0.244234,-0.205578 l 0.0203,-0.01566 0.06135,0.0011 0.06135,0.0011 -0.06258,0.04974 c -0.269474,0.214189 -0.506826,0.45273 -0.681225,0.684634 -0.387437,0.515191 -0.438361,0.930066 -0.149625,1.218999 0.02805,0.02807 0.06814,0.06379 0.08908,0.07938 0.108193,0.08052 0.250325,0.149453 0.435855,0.211379 0.354434,0.118304 0.632689,0.107935 0.916681,-0.03416 0.165474,-0.08279 0.338833,-0.211853 0.552761,-0.411512 0.03546,-0.0331 0.08205,-0.07528 0.103516,-0.09374 0.1268,-0.109005 0.344945,-0.26305 0.605442,-0.427536 0.120377,-0.07601 0.40028,-0.244067 0.405977,-0.243754 0.0053,2.94e-4 0.0082,-0.0016 -0.09738,0.06285 -0.475426,0.289989 -0.842852,0.574363 -1.027355,0.795134 -0.02298,0.02749 -0.05933,0.07623 -0.08078,0.108314 -0.04874,0.07288 -0.07385,0.103666 -0.122867,0.150657 -0.06665,0.06389 -0.125295,0.103908 -0.218215,0.148908 -0.163445,0.07916 -0.374238,0.117529 -0.583984,0.10631 z"
     id="path110"
     inkscape:connector-curvature="0" />
  <path
     style="fill:#ff0000;stroke-width:0.01104854"
     d="m 91.017029,38.882013 c 0.180936,-0.135065 0.503669,-0.347825 0.714854,-0.471264 0.165263,-0.0966 0.429542,-0.239498 0.442926,-0.239498 0.004,0 0.0073,0.01947 0.0073,0.04326 v 0.04326 l -0.190587,0.09867 c -0.313744,0.162437 -0.608585,0.34375 -0.873476,0.537148 -0.123802,0.09039 -0.133363,0.09525 -0.187306,0.09525 H 90.8739 Z"
     id="path112"
     inkscape:connector-curvature="0" />
  <path
     style="fill:#ff0000;stroke-width:0.0078125"
     d="m 82.564089,44.575464 c 0,-0.02529 -0.01095,-0.02208 0.171875,-0.05042 0.756423,-0.117266 1.366877,-0.241645 1.800782,-0.366907 1.263749,-0.364826 2.384281,-1.007887 2.722825,-1.562601 0.188152,-0.308292 0.111772,-0.563419 -0.214085,-0.715091 -0.224072,-0.104296 -0.593432,-0.175342 -1.094678,-0.210559 -0.689769,-0.04846 -1.817335,-0.03733 -3.164062,0.03122 -0.224454,0.01143 -0.222657,0.01152 -0.222657,-0.01182 0,-0.01834 0.0025,-0.01954 0.04102,-0.01965 0.02256,-6.2e-5 0.100781,-0.0035 0.173828,-0.0076 1.162253,-0.06564 2.339232,-0.0808 3.027344,-0.03898 1.124544,0.06834 1.626852,0.289874 1.590285,0.701371 -0.01122,0.12627 -0.07092,0.27504 -0.162034,0.403809 -0.06352,0.08976 -0.221406,0.252552 -0.339506,0.350044 -0.632805,0.522376 -1.755056,1.012692 -2.90064,1.2673 -0.296193,0.06583 -0.873834,0.169332 -1.279902,0.229335 l -0.150391,0.02222 z"
     id="path114"
     inkscape:connector-curvature="0" />
  <path
     style="fill:#ff0000;stroke-width:0.01104854"
     d=""
     id="path116"
     inkscape:connector-curvature="0" />
  <path
     style="fill:#ff0000;stroke-width:0.01104854"
     d="m 75.60058,44.973208 c -3.133358,-0.07035 -5.431742,-0.427743 -6.031244,-0.937831 -0.08183,-0.06962 -0.133662,-0.143515 -0.206311,-0.294106 -0.233925,-0.484885 -0.395898,-1.288814 -0.479709,-2.380961 -0.03825,-0.498487 -0.04482,-0.728854 -0.04458,-1.563369 2.37e-4,-0.821503 0.005,-0.996124 0.04416,-1.613087 0.0234,-0.368779 0.02737,-0.403272 0.04645,-0.403272 0.01285,0 0.01485,0.01081 0.0097,0.05248 -0.02817,0.227873 -0.05062,0.935023 -0.05058,1.593752 5.7e-5,1.17235 0.0601,2.422815 0.143502,2.988631 0.106918,0.725339 0.385565,1.466509 0.621439,1.652957 0.237076,0.187398 0.896264,0.37851 1.824253,0.528888 0.81319,0.131775 1.655776,0.220204 2.962456,0.310908 1.041852,0.07232 4.737733,0.0038 6.076699,-0.112628 0.548324,-0.04769 1.293884,-0.133673 1.816558,-0.209505 0.124062,-0.018 0.226763,-0.03273 0.228222,-0.03273 0.0015,0 1.77e-4,0.0095 -0.0029,0.02106 -0.0065,0.02503 -0.0012,0.02394 -0.323881,0.06646 -1.274725,0.168016 -2.565666,0.266923 -4.198446,0.32167 -0.453181,0.01519 -1.943663,0.02173 -2.435824,0.01068 z"
     id="path118"
     inkscape:connector-curvature="0" />
  <path
     style="fill:#ff0000;stroke-width:0.00390625"
     d="m 75.655138,41.8456 c -0.463865,-0.04078 -0.785195,-0.08535 -1.070312,-0.148457 -0.893057,-0.197671 -1.589717,-0.511723 -2.10728,-0.949954 -0.229775,-0.194555 -0.421483,-0.410047 -0.586223,-0.658953 -0.282024,-0.426108 -0.472902,-0.867253 -0.609315,-1.408203 -0.02475,-0.09814 -0.06828,-0.2923 -0.06828,-0.304552 0,-0.0041 0.0025,-0.0061 0.0066,-0.0053 0.0052,10e-4 0.01047,0.01843 0.02502,0.08329 0.185817,0.828343 0.484768,1.462384 0.923817,1.959314 0.05702,0.06454 0.190639,0.199209 0.252772,0.254764 0.513744,0.459352 1.174446,0.773169 2.053479,0.975351 0.378007,0.08694 0.799135,0.151856 1.316406,0.202909 l 0.07227,0.0071 -0.0625,1.5e-5 c -0.03438,8e-6 -0.100293,-0.0033 -0.146485,-0.0074 z"
     id="path120"
     inkscape:connector-curvature="0" />
  <path
     style="fill:#ff0000;stroke-width:0.00390625"
     d="m 68.937756,37.448291 c 0,-0.0099 0.01954,-0.201993 0.03342,-0.328592 0.142158,-1.296498 0.372699,-2.340222 0.654109,-2.96134 0.02972,-0.06559 0.0868,-0.179425 0.0934,-0.186276 0.0016,-0.0017 0.01886,-0.0026 0.03828,-0.002 l 0.03531,0.0011 -0.02888,0.04883 c -0.03742,0.06328 -0.09831,0.183627 -0.135358,0.267578 -0.264368,0.598985 -0.465635,1.523468 -0.614003,2.820313 -0.0087,0.07636 -0.03721,0.3396 -0.03721,0.343994 0,9.4e-4 -0.0088,0.0017 -0.01953,0.0017 -0.01401,0 -0.01953,-0.0015 -0.01953,-0.0054 z"
     id="path122"
     inkscape:connector-curvature="0" />
  <path
     style="fill:#ff0000;stroke-width:0.00390625"
     d="m 71.072864,37.435129 c -0.0044,-0.03452 -0.02161,-0.213229 -0.03139,-0.325195 -0.03652,-0.41819 -0.05974,-0.815554 -0.08615,-1.47461 -0.03324,-0.829262 -0.06586,-1.305422 -0.109555,-1.599609 -0.0053,-0.03545 -0.0096,-0.06489 -0.0096,-0.06543 -10e-7,-5.37e-4 0.01043,-9.76e-4 0.02317,-9.76e-4 0.0273,0 0.02334,-0.0077 0.03895,0.07626 0.02243,0.120746 0.04416,0.287564 0.05876,0.451085 0.02733,0.306154 0.03739,0.585482 0.04122,1.144532 0.005,0.723128 0.02466,1.187135 0.07046,1.659166 0.01539,0.158643 0.01503,0.153334 0.01056,0.153334 -0.0023,0 -0.0052,-0.0084 -0.0064,-0.01855 z"
     id="path124"
     inkscape:connector-curvature="0" />
  <path
     style="fill:#ff0000;stroke-width:0.00390625"
     d="m 68.904194,37.838102 c -2.5e-4,-0.0085 0.01286,-0.166137 0.02738,-0.329101 l 0.0048,-0.05371 h 0.02072 c 0.02046,0 0.0207,1.37e-4 0.01884,0.01074 -0.003,0.01735 -0.02919,0.294618 -0.02918,0.309375 7e-6,0.01048 -0.001,0.01243 -0.0047,0.0088 -0.0064,-0.0064 -0.01679,-0.0059 -0.02252,0.001 -0.0026,0.0031 -0.0071,0.01852 -0.0099,0.03418 -0.0028,0.01566 -0.0053,0.02409 -0.0054,0.01871 z"
     id="path126"
     inkscape:connector-curvature="0" />
  <path
     style="fill:#ff0000;stroke-width:0.00552427"
     d="m 69.735124,33.942958 c 0.03302,-0.05797 0.09953,-0.156107 0.138191,-0.203896 0.084,-0.103841 0.238095,-0.238911 0.349606,-0.306449 0.176915,-0.107152 0.313447,-0.107253 0.426806,-3.16e-4 0.06832,0.06445 0.119558,0.154513 0.167452,0.29434 0.02264,0.06611 0.06356,0.217283 0.06356,0.234835 0,0.0053 -0.0068,0.0077 -0.02199,0.0077 -0.01838,0 -0.0224,-0.002 -0.02449,-0.01243 -0.03208,-0.159687 -0.05445,-0.233919 -0.09473,-0.314299 -0.05777,-0.115276 -0.114003,-0.18178 -0.181861,-0.215065 -0.03666,-0.01798 -0.04146,-0.01891 -0.09668,-0.01866 -0.05222,2.32e-4 -0.06266,0.0021 -0.10315,0.01815 -0.02478,0.0098 -0.06579,0.03092 -0.09115,0.04685 -0.152035,0.09548 -0.346071,0.293686 -0.453942,0.463691 l -0.02016,0.03177 h -0.03621 -0.03621 z"
     id="path128"
     inkscape:connector-curvature="0" />
  <path
     style="fill:#b3b3b3;stroke-width:0.25"
     d="m 109.86453,72.219395 c -1.49008,-0.464117 -1.84812,-0.958207 -1.36766,-1.887323 0.37767,-0.73032 1.83406,-1.979792 2.30766,-1.979792 0.14901,0 0.33943,0.646875 0.42317,1.4375 0.0837,0.790625 0.20152,1.746875 0.26173,2.125 0.12521,0.786192 -0.002,0.810062 -1.6249,0.304615 z"
     id="path130"
     inkscape:connector-curvature="0" />
  <path
     style="fill:#b3b3b3;stroke-width:0.0625"
     d="m 114.32799,71.405659 c -0.52997,-0.289871 -0.28851,-0.963329 0.44361,-1.237249 0.57673,-0.215784 1.86361,-0.128892 2.13678,0.144279 0.0892,0.08917 0.0781,0.116875 -0.12081,0.303509 -0.23648,0.221842 -1.0399,0.642682 -1.48514,0.777928 -0.3304,0.100361 -0.80184,0.105941 -0.97444,0.01153 z"
     id="path132"
     inkscape:connector-curvature="0" />
  <path
     style="fill:#b3b3b3;stroke-width:0.0625"
     d="m 118.25226,69.809653 c -0.064,-0.166899 0.57564,-0.700108 1.27613,-1.063719 1.06856,-0.554663 1.93139,-0.79922 2.17596,-0.616741 0.11899,0.08878 0.1094,0.105862 -0.25552,0.454816 -0.8494,0.812249 -3.0338,1.649805 -3.19657,1.225644 z"
     id="path134"
     inkscape:connector-curvature="0" />
  <path
     style="fill:#b3b3b3;stroke-width:0.0625"
     d="m 128.55809,66.907923 c -0.48398,-0.08051 -0.94,-0.294177 -1.03982,-0.487205 -0.2388,-0.461788 0.54504,-1.056903 1.70916,-1.297647 0.62218,-0.12867 1.46843,-0.08537 1.95507,0.100038 0.39003,0.148594 0.80174,0.540031 0.80174,0.762254 0,0.227387 -0.42717,0.584656 -0.875,0.731823 -0.74085,0.243457 -1.77116,0.320488 -2.55115,0.190737 z"
     id="path136"
     inkscape:connector-curvature="0" />
  <path
     style="fill:#ffff00;stroke-width:0.08838835"
     d="m 114.61384,56.681979 c -0.78222,-0.216396 -1.20888,-0.675913 -1.27598,-1.374237 -0.0568,-0.590936 0.15527,-1.141045 0.59188,-1.535498 0.4598,-0.415404 0.86388,-0.532037 1.67527,-0.483557 1.2479,0.07456 2.13182,0.744738 2.13182,1.616319 0,1.139379 -1.77563,2.14971 -3.12299,1.776973 z"
     id="path138"
     inkscape:connector-curvature="0" />
  <path
     style="fill:#ffff00;stroke-width:0.08838835"
     d="m 111.50545,50.865331 c -1.19949,-0.418146 -1.49825,-2.342969 -0.49473,-3.187375 0.42191,-0.355012 0.88505,-0.468343 1.3649,-0.333994 1.07674,0.30147 1.67751,1.474729 1.21444,2.37175 -0.22272,0.431458 -0.76573,0.948287 -1.17579,1.119114 -0.37406,0.15583 -0.53392,0.161196 -0.90882,0.0305 z"
     id="path140"
     inkscape:connector-curvature="0" />
  <path
     style="fill:#ffff00;stroke-width:0.08838835"
     d="m 106.42555,45.701104 c -0.45128,-0.379732 -0.73307,-1.035518 -0.77364,-1.800448 -0.0396,-0.747457 0.10152,-1.134487 0.52779,-1.447025 0.6125,-0.449083 1.70673,-0.06655 2.22982,0.779518 0.21636,0.349954 0.2675,0.529596 0.2675,0.939634 0,0.434586 -0.039,0.55545 -0.27345,0.846621 -0.72363,0.898827 -1.43047,1.142431 -1.97802,0.6817 z"
     id="path142"
     inkscape:connector-curvature="0" />
  <path
     style="fill:#000000;stroke-width:0.5"
     d="m 106.80291,206.23641 c -1.5125,-0.20675 -3.38339,-0.62725 -4.15755,-0.93444 -0.77415,-0.30719 -2.01165,-0.56184 -2.749995,-0.56589 -2.414965,-0.0132 -13.18182,-3.96918 -16.68384,-6.12995 -9.803742,-6.04894 -12.94852,-8.37948 -18.303216,-13.56418 -9.429894,-9.13051 -15.5259,-17.3169 -18.621813,-25.0074 -1.005446,-2.49761 -2.624503,-6.11611 -3.597902,-8.04111 -2.98035,-5.89395 -9.772501,-21.37413 -10.363519,-23.61977 -0.306839,-1.16588 -1.694447,-4.6388 -3.083572,-7.71761 -3.508311,-7.77569 -3.513109,-7.7299 1.061412,-10.13068 2.0625,-1.08244 11.7375,-5.32703 21.5,-9.43244 9.7625,-4.105406 18.9875,-7.995688 20.5,-8.645069 1.5125,-0.649382 3.135835,-1.186035 3.60741,-1.192563 0.471575,-0.0065 1.09824,-0.461867 1.39259,-1.011867 0.65967,-1.232603 2.34905,-1.291597 3.635945,-0.12697 0.76794,0.694975 2.11407,0.909517 6.60022,1.051927 3.4474,0.109435 6.029235,-0.03181 6.64953,-0.363782 0.5577,-0.298472 1.370945,-1.590259 1.807215,-2.870635 0.894905,-2.626398 3.0403,-5.69054 3.9843,-5.69054 0.344475,0 2.976775,-1.393778 5.849555,-3.097284 8.78105,-5.207006 19.54518,-9.557701 21.64925,-8.750294 0.99686,0.382532 3.83716,5.647454 5.85202,10.847578 3.35834,8.667531 8.18101,19.972709 11.7312,27.499999 5.38491,11.41734 8.0454,20.9069 9.28005,33.10044 2.08476,20.5894 -5.57493,42.36653 -21.02455,59.77456 l -4.54844,5.125 -9.60815,-0.0656 c -5.28448,-0.036 -10.84565,-0.23472 -12.35815,-0.44147 z"
     id="path144"
     inkscape:connector-curvature="0" />
</svg>
